<svg width="29" height="21" viewBox="0 0 29 21" fill="none" xmlns="http://www.w3.org/2000/svg">
<rect x="0.5" y="0.5" width="28" height="20" rx="1.2" fill="white"/>
<mask id="mask0_152_4" style="mask-type:luminance" maskUnits="userSpaceOnUse" x="0" y="0" width="29" height="21">
<rect x="0.5" y="0.5" width="28" height="20" rx="1.2" fill="white"/>
</mask>
<g mask="url(#mask0_152_4)">
<path fill-rule="evenodd" clip-rule="evenodd" d="M28.5002 0.5H0.50018V1.83333H28.5002V0.5ZM28.5 3.16667H0.5V4.5H28.5V3.16667ZM0.5 5.83333H28.5V7.16667H0.5V5.83333ZM28.5 8.5H0.5V9.83333H28.5V8.5ZM0.5 11.1667H28.5V12.5H0.5V11.1667ZM28.5 13.8333H0.5V15.1667H28.5V13.8333ZM0.5 16.5H28.5V17.8333H0.5V16.5ZM28.5 19.1667H0.5V20.5H28.5V19.1667Z" fill="#D02F44"/>
<rect x="0.5" y="0.5" width="12" height="9.33333" fill="#46467F"/>
<g filter="url(#filter0_d_152_4)">
<path fill-rule="evenodd" clip-rule="evenodd" d="M3.16636 2.49992C3.16636 2.86811 2.86788 3.16659 2.49969 3.16659C2.1315 3.16659 1.83303 2.86811 1.83303 2.49992C1.83303 2.13173 2.1315 1.83325 2.49969 1.83325C2.86788 1.83325 3.16636 2.13173 3.16636 2.49992ZM5.834 2.49992C5.834 2.86811 5.53553 3.16659 5.16734 3.16659C4.79915 3.16659 4.50067 2.86811 4.50067 2.49992C4.50067 2.13173 4.79915 1.83325 5.16734 1.83325C5.53553 1.83325 5.834 2.13173 5.834 2.49992ZM7.83335 3.16659C8.20154 3.16659 8.50002 2.86811 8.50002 2.49992C8.50002 2.13173 8.20154 1.83325 7.83335 1.83325C7.46516 1.83325 7.16669 2.13173 7.16669 2.49992C7.16669 2.86811 7.46516 3.16659 7.83335 3.16659ZM11.1662 2.49992C11.1662 2.86811 10.8677 3.16658 10.4995 3.16658C10.1313 3.16658 9.83286 2.86811 9.83286 2.49992C9.83286 2.13173 10.1313 1.83325 10.4995 1.83325C10.8677 1.83325 11.1662 2.13173 11.1662 2.49992ZM3.83254 4.49984C4.20073 4.49984 4.4992 4.20136 4.4992 3.83317C4.4992 3.46498 4.20073 3.1665 3.83254 3.1665C3.46435 3.1665 3.16587 3.46498 3.16587 3.83317C3.16587 4.20136 3.46435 4.49984 3.83254 4.49984ZM7.16538 3.83333C7.16538 4.20152 6.86691 4.5 6.49872 4.5C6.13053 4.5 5.83205 4.20152 5.83205 3.83333C5.83205 3.46514 6.13053 3.16667 6.49872 3.16667C6.86691 3.16667 7.16538 3.46514 7.16538 3.83333ZM9.16652 4.49984C9.53471 4.49984 9.83319 4.20136 9.83319 3.83317C9.83319 3.46498 9.53471 3.1665 9.16652 3.1665C8.79833 3.1665 8.49986 3.46498 8.49986 3.83317C8.49986 4.20136 8.79833 4.49984 9.16652 4.49984ZM11.1662 5.16658C11.1662 5.53477 10.8677 5.83325 10.4995 5.83325C10.1313 5.83325 9.83286 5.53477 9.83286 5.16658C9.83286 4.79839 10.1313 4.49992 10.4995 4.49992C10.8677 4.49992 11.1662 4.79839 11.1662 5.16658ZM7.83335 5.83341C8.20154 5.83341 8.50002 5.53494 8.50002 5.16675C8.50002 4.79856 8.20154 4.50008 7.83335 4.50008C7.46516 4.50008 7.16669 4.79856 7.16669 5.16675C7.16669 5.53494 7.46516 5.83341 7.83335 5.83341ZM5.834 5.16675C5.834 5.53494 5.53553 5.83341 5.16734 5.83341C4.79915 5.83341 4.50067 5.53494 4.50067 5.16675C4.50067 4.79856 4.79915 4.50008 5.16734 4.50008C5.53553 4.50008 5.834 4.79856 5.834 5.16675ZM2.49951 5.83325C2.8677 5.83325 3.16618 5.53477 3.16618 5.16658C3.16618 4.79839 2.8677 4.49992 2.49951 4.49992C2.13132 4.49992 1.83285 4.79839 1.83285 5.16658C1.83285 5.53477 2.13132 5.83325 2.49951 5.83325ZM4.4992 6.49992C4.4992 6.86811 4.20073 7.16658 3.83254 7.16658C3.46435 7.16658 3.16587 6.86811 3.16587 6.49992C3.16587 6.13173 3.46435 5.83325 3.83254 5.83325C4.20073 5.83325 4.4992 6.13173 4.4992 6.49992ZM6.49872 7.16663C6.86691 7.16663 7.16538 6.86815 7.16538 6.49996C7.16538 6.13177 6.86691 5.83329 6.49872 5.83329C6.13053 5.83329 5.83205 6.13177 5.83205 6.49996C5.83205 6.86815 6.13053 7.16663 6.49872 7.16663ZM9.83319 6.49992C9.83319 6.86811 9.53471 7.16658 9.16652 7.16658C8.79833 7.16658 8.49986 6.86811 8.49986 6.49992C8.49986 6.13173 8.79833 5.83325 9.16652 5.83325C9.53471 5.83325 9.83319 6.13173 9.83319 6.49992ZM10.4995 8.49992C10.8677 8.49992 11.1662 8.20144 11.1662 7.83325C11.1662 7.46506 10.8677 7.16658 10.4995 7.16658C10.1313 7.16658 9.83286 7.46506 9.83286 7.83325C9.83286 8.20144 10.1313 8.49992 10.4995 8.49992ZM8.50002 7.83317C8.50002 8.20136 8.20154 8.49984 7.83335 8.49984C7.46516 8.49984 7.16669 8.20136 7.16669 7.83317C7.16669 7.46498 7.46516 7.1665 7.83335 7.1665C8.20154 7.1665 8.50002 7.46498 8.50002 7.83317ZM5.16734 8.49984C5.53553 8.49984 5.834 8.20136 5.834 7.83317C5.834 7.46498 5.53553 7.1665 5.16734 7.1665C4.79915 7.1665 4.50067 7.46498 4.50067 7.83317C4.50067 8.20136 4.79915 8.49984 5.16734 8.49984ZM3.16618 7.83325C3.16618 8.20144 2.8677 8.49992 2.49951 8.49992C2.13132 8.49992 1.83285 8.20144 1.83285 7.83325C1.83285 7.46506 2.13132 7.16658 2.49951 7.16658C2.8677 7.16658 3.16618 7.46506 3.16618 7.83325Z" fill="url(#paint0_linear_152_4)"/>
</g>
</g>
<defs>
<filter id="filter0_d_152_4" x="1.83285" y="1.83325" width="9.33335" height="7.26667" filterUnits="userSpaceOnUse" color-interpolation-filters="sRGB">
<feFlood flood-opacity="0" result="BackgroundImageFix"/>
<feColorMatrix in="SourceAlpha" type="matrix" values="0 0 0 0 0 0 0 0 0 0 0 0 0 0 0 0 0 0 127 0" result="hardAlpha"/>
<feOffset dy="0.6"/>
<feColorMatrix type="matrix" values="0 0 0 0 0 0 0 0 0 0 0 0 0 0 0 0 0 0 0.06 0"/>
<feBlend mode="normal" in2="BackgroundImageFix" result="effect1_dropShadow_152_4"/>
<feBlend mode="normal" in="SourceGraphic" in2="effect1_dropShadow_152_4" result="shape"/>
</filter>
<linearGradient id="paint0_linear_152_4" x1="1.83285" y1="1.83325" x2="1.83285" y2="8.49992" gradientUnits="userSpaceOnUse">
<stop stop-color="white"/>
<stop offset="1" stop-color="#F0F0F0"/>
</linearGradient>
</defs>
</svg>
