<svg width="32" height="32" viewBox="0 0 32 32" fill="none" xmlns="http://www.w3.org/2000/svg">
<rect width="32" height="32" rx="16" fill="black"/>
<path d="M27.7541 9.05731C28.561 9.05731 29.1454 9.29383 29.5071 9.76688C29.8781 10.2399 29.9245 10.8104 29.6462 11.4782L28.7558 13.5791C28.561 14.0335 28.2457 14.4509 27.8097 14.8312C27.3738 15.2022 26.8775 15.4898 26.321 15.6938C26.2283 15.7309 26.1958 15.7819 26.2236 15.8469L27.1558 17.9199C27.2114 18.0498 27.1836 18.1796 27.0723 18.3095C26.961 18.4301 26.8219 18.4904 26.6549 18.4904H23.4549L22.481 16.0973C22.4254 16.0324 22.3651 15.9999 22.3001 15.9999H19.7958C19.7123 15.9999 19.6567 16.037 19.6288 16.1112L18.9054 17.8225C18.8404 17.9617 18.7245 18.0822 18.5575 18.1843C18.3998 18.2863 18.2329 18.3373 18.0567 18.3373H15.3714L18.5297 10.8799L18.5436 9.05731H27.7541ZM26.168 11.8399C26.2236 11.7101 26.2143 11.6034 26.1401 11.5199C26.0752 11.4272 25.9639 11.3808 25.8062 11.3808H20.1714L21.3819 11.9791L20.6584 13.6764H24.8323C24.99 13.6764 25.1384 13.6347 25.2775 13.5512C25.4259 13.4585 25.528 13.3472 25.5836 13.2173L26.168 11.8399Z" fill="#F0A500"/>
<path d="M20.6584 13.6764L20.1714 14.8382C20.1158 14.9773 19.6565 15.8979 19.4896 15.9999C19.3226 16.1019 15.1557 16.0417 14.9887 16.0417H6.73828L7.68437 16.5704L7.53133 16.9321C7.49423 17.0156 7.49886 17.0898 7.54524 17.1547C7.59162 17.2104 7.66582 17.2382 7.76785 17.2382H12.7348C13.5325 17.2382 14.1168 17.4747 14.4878 17.9477C14.8589 18.4208 14.9006 18.9912 14.6131 19.6591L14.2513 20.5356C13.9638 21.2034 13.4351 21.7738 12.6652 22.2469C11.8954 22.7106 11.107 22.9425 10.3 22.9425H2.1748L2.98176 21.0364C3.04669 20.8973 3.16263 20.7767 3.32959 20.6747C3.48727 20.5727 3.65423 20.5217 3.83046 20.5217H10.7174C10.8194 20.5217 10.9168 20.4938 11.0096 20.4382C11.1116 20.3733 11.1812 20.2991 11.2183 20.2156L11.3992 19.7704C11.4363 19.6869 11.4316 19.6173 11.3852 19.5617C11.3389 19.4967 11.2647 19.4643 11.1626 19.4643H6.20959C5.40263 19.4643 4.81365 19.2277 4.44263 18.7547C4.08089 18.2817 4.03915 17.7112 4.31741 17.0434L4.72089 16.0973C5.00843 15.4295 5.53713 14.8591 6.30698 14.386C7.07684 13.913 7.8606 13.6764 8.65828 13.6764H20.6584Z" fill="#F0A500"/>
</svg>
