<svg width="28" height="20" viewBox="0 0 28 20" fill="none" xmlns="http://www.w3.org/2000/svg">
<mask id="mask0_152_38" style="mask-type:luminance" maskUnits="userSpaceOnUse" x="0" y="0" width="28" height="20">
<path d="M25.859 0.769234H2.14134C1.04976 0.769234 0.164867 1.59578 0.164867 2.61539V17.3846C0.164867 18.4042 1.04976 19.2308 2.14134 19.2308H25.859C26.9506 19.2308 27.8355 18.4042 27.8355 17.3846V2.61539C27.8355 1.59578 26.9506 0.769234 25.859 0.769234Z" fill="white"/>
</mask>
<g mask="url(#mask0_152_38)">
<path d="M27.8355 0.769234H0.164867V19.2308H27.8355V0.769234Z" fill="#F22A46"/>
<path fill-rule="evenodd" clip-rule="evenodd" d="M14.0008 13.0769C15.8201 13.0769 17.2949 11.6993 17.2949 10C17.2949 8.30067 15.8201 6.92308 14.0008 6.92308C12.1815 6.92308 10.7067 8.30067 10.7067 10C10.7067 11.6993 12.1815 13.0769 14.0008 13.0769Z" fill="#FFF04D"/>
<path fill-rule="evenodd" clip-rule="evenodd" d="M12.3875 16.5995L14.0002 14.3511L15.6128 16.5995L16.0213 13.9202L18.5187 15.2925L17.642 12.7129L20.5296 12.9371L18.5416 10.9683L21.2472 10.0001L18.5416 9.03187L20.5296 7.063L17.642 7.28725L18.5187 4.70767L16.0213 6.07993L15.6128 3.40056L14.0002 5.64904L12.3875 3.40056L11.9791 6.07993L9.48169 4.70767L10.3583 7.28725L7.47078 7.063L9.45879 9.03187L6.75311 10.0001L9.45879 10.9683L7.47078 12.9371L10.3583 12.7129L9.48169 15.2925L11.9791 13.9202L12.3875 16.5995ZM18.6128 10.0002C18.6128 12.3792 16.548 14.3079 14.001 14.3079C11.454 14.3079 9.38921 12.3792 9.38921 10.0002C9.38921 7.6211 11.454 5.69247 14.001 5.69247C16.548 5.69247 18.6128 7.6211 18.6128 10.0002Z" fill="#FFF04D"/>
</g>
</svg>
