<svg width="111" height="34" viewBox="0 0 111 34" fill="none" xmlns="http://www.w3.org/2000/svg">
<path d="M18.32 1.7C19.48 1.7 20.32 2.04 20.84 2.72C21.3733 3.4 21.44 4.22 21.04 5.18L19.76 8.2C19.48 8.85333 19.0267 9.45333 18.4 10C17.7733 10.5333 17.06 10.9467 16.26 11.24C16.1267 11.2933 16.08 11.3667 16.12 11.46L17.46 14.44C17.54 14.6267 17.5 14.8133 17.34 15C17.18 15.1733 16.98 15.26 16.74 15.26H12.14L10.74 11.82C10.66 11.7267 10.5733 11.68 10.48 11.68H6.88C6.76 11.68 6.68 11.7333 6.64 11.84L5.6 14.3C5.50667 14.5 5.34 14.6733 5.1 14.82C4.87333 14.9667 4.63333 15.04 4.38 15.04H0.52L5.06 4.32L5.08 1.7H18.32ZM16.04 5.7C16.12 5.51333 16.1067 5.36 16 5.24C15.9067 5.10667 15.7467 5.04 15.52 5.04H7.42L9.16 5.9L8.12 8.34H14.12C14.3467 8.34 14.56 8.28 14.76 8.16C14.9733 8.02667 15.12 7.86667 15.2 7.68L16.04 5.7ZM37.5338 1.68C38.6938 1.68 39.5404 2.02 40.0738 2.7C40.6071 3.36667 40.6671 4.18 40.2538 5.14L37.5338 11.56C37.1204 12.52 36.3604 13.34 35.2538 14.02C34.1471 14.7 33.0204 15.04 31.8738 15.04H22.7538C21.6071 15.04 20.7671 14.7 20.2337 14.02C19.7004 13.34 19.6404 12.52 20.0537 11.56L22.7738 5.14C23.1738 4.18 23.9271 3.36667 25.0338 2.7C26.1404 2.02 27.2738 1.68 28.4338 1.68H37.5338ZM35.2938 5.56C35.3471 5.44 35.3404 5.34 35.2738 5.26C35.2071 5.16667 35.1004 5.12 34.9538 5.12H25.8938L27.2538 5.86L25.0138 11.1C24.9738 11.2333 24.9871 11.3467 25.0538 11.44C25.1204 11.52 25.2271 11.56 25.3738 11.56H32.2138C32.3604 11.56 32.5071 11.52 32.6538 11.44C32.8004 11.3467 32.9004 11.2333 32.9538 11.1L35.2938 5.56ZM53.4317 1.66H58.6517L49.0717 10.1C49.0451 10.14 48.9984 10.2 48.9317 10.28C48.8784 10.36 48.8384 10.42 48.8117 10.46L47.1917 14.26C47.1517 14.34 47.1051 14.42 47.0517 14.5C46.9984 14.5667 46.9384 14.6267 46.8717 14.68C46.8051 14.7333 46.7384 14.78 46.6717 14.82C46.6184 14.8467 46.5451 14.8733 46.4517 14.9C46.3717 14.9267 46.2984 14.9467 46.2317 14.96C46.1784 14.9733 46.1051 14.9867 46.0117 15C45.9184 15 45.8517 15 45.8117 15C45.7851 15 45.7317 15 45.6517 15C45.5717 15 45.5317 15 45.5317 15H42.1117L44.0517 10.46C44.0517 10.3133 44.0584 10.18 44.0717 10.06L41.6717 1.66H46.3917C46.7251 1.66 46.9251 1.78667 46.9917 2.04L47.9517 5.34L46.8317 7.48L53.4317 1.66ZM68.3997 1.66L70.7597 15.02L66.0197 14.98C65.7397 14.98 65.5864 14.8667 65.5597 14.64L65.3797 13.54H55.4597L56.8997 14.38C56.8864 14.3933 56.853 14.4267 56.7997 14.48C56.7597 14.52 56.733 14.5467 56.7197 14.56C56.7064 14.5733 56.673 14.6 56.6197 14.64C56.5797 14.68 56.5464 14.7067 56.5197 14.72C56.5064 14.7333 56.473 14.76 56.4197 14.8C56.3797 14.8267 56.3464 14.8467 56.3197 14.86C56.293 14.8733 56.2597 14.8933 56.2197 14.92C56.1797 14.9333 56.1397 14.9467 56.0997 14.96C56.0597 14.96 56.013 14.9667 55.9597 14.98C55.9197 14.98 55.873 14.98 55.8197 14.98C54.353 15.0067 52.6664 15.02 50.7597 15.02L51.7397 14.06L62.1797 3.54V1.68L68.3997 1.66ZM60.8997 10.36H64.8997L64.3197 6.88L60.8997 10.36Z" fill="white"/>
<path d="M36.04 16.66L34.92 19.32C34.84 19.52 34.68 19.6933 34.44 19.84C34.2 19.9867 33.96 20.06 33.72 20.06H21.86L23.22 20.82L23 21.34C22.9467 21.46 22.9533 21.5667 23.02 21.66C23.0867 21.74 23.1933 21.78 23.34 21.78H30.48C31.6267 21.78 32.4667 22.12 33 22.8C33.5333 23.48 33.5933 24.3 33.18 25.26L32.66 26.52C32.2467 27.48 31.4867 28.3 30.38 28.98C29.2733 29.6467 28.14 29.98 26.98 29.98H15.3L16.46 27.24C16.5533 27.04 16.72 26.8667 16.96 26.72C17.1867 26.5733 17.4267 26.5 17.68 26.5H27.58C27.7267 26.5 27.8667 26.46 28 26.38C28.1467 26.2867 28.2467 26.18 28.3 26.06L28.56 25.42C28.6133 25.3 28.6067 25.2 28.54 25.12C28.4733 25.0267 28.3667 24.98 28.22 24.98H21.1C19.94 24.98 19.0933 24.64 18.56 23.96C18.04 23.28 17.98 22.46 18.38 21.5L18.96 20.14C19.3733 19.18 20.1333 18.36 21.24 17.68C22.3467 17 23.4733 16.66 24.62 16.66H36.04ZM50.6838 16.66C51.8438 16.66 52.6838 17 53.2038 17.68C53.7371 18.36 53.8038 19.18 53.4038 20.14L52.1238 23.18C51.7104 24.14 50.9504 24.96 49.8438 25.64C48.7371 26.32 47.6038 26.66 46.4438 26.66H39.2438C39.1238 26.66 39.0438 26.7067 39.0038 26.8L37.9638 29.26C37.8704 29.4733 37.7038 29.6533 37.4638 29.8C37.2371 29.9333 36.9971 30 36.7438 30H32.8837L37.4238 19.3L37.4438 16.66H50.6838ZM48.4038 20.66C48.4838 20.4867 48.4704 20.3333 48.3638 20.2C48.2704 20.0667 48.1104 20 47.8838 20H39.8838L41.5438 20.84L40.5438 23.16C40.5038 23.2667 40.5438 23.32 40.6638 23.32H46.4838C46.7104 23.32 46.9238 23.26 47.1238 23.14C47.3371 23.0067 47.4838 22.8467 47.5638 22.66L48.4038 20.66ZM69.4673 16.68C70.6273 16.68 71.474 17.02 72.0073 17.7C72.5407 18.3667 72.6007 19.18 72.1873 20.14L69.4673 26.56C69.054 27.52 68.294 28.34 67.1873 29.02C66.0807 29.7 64.954 30.04 63.8073 30.04H54.6873C53.5407 30.04 52.7007 29.7 52.1673 29.02C51.634 28.34 51.574 27.52 51.9873 26.56L54.7073 20.14C55.1073 19.18 55.8607 18.3667 56.9673 17.7C58.074 17.02 59.2073 16.68 60.3673 16.68H69.4673ZM67.2273 20.56C67.2807 20.44 67.274 20.34 67.2073 20.26C67.1407 20.1667 67.034 20.12 66.8873 20.12H57.8273L59.1873 20.86L56.9473 26.1C56.9073 26.2333 56.9207 26.3467 56.9873 26.44C57.054 26.52 57.1607 26.56 57.3073 26.56H64.1473C64.294 26.56 64.4407 26.52 64.5873 26.44C64.734 26.3467 64.834 26.2333 64.8873 26.1L67.2273 20.56ZM87.6755 16.7C88.8355 16.7 89.6755 17.04 90.1955 17.72C90.7288 18.4 90.7955 19.22 90.3955 20.18L89.1155 23.2C88.8355 23.8533 88.3821 24.4533 87.7555 25C87.1288 25.5333 86.4155 25.9467 85.6155 26.24C85.4821 26.2933 85.4355 26.3667 85.4755 26.46L86.8155 29.44C86.8955 29.6267 86.8555 29.8133 86.6955 30C86.5355 30.1733 86.3355 30.26 86.0955 30.26H81.4955L80.0955 26.82C80.0155 26.7267 79.9288 26.68 79.8355 26.68H76.2355C76.1155 26.68 76.0355 26.7333 75.9955 26.84L74.9555 29.3C74.8621 29.5 74.6955 29.6733 74.4555 29.82C74.2288 29.9667 73.9888 30.04 73.7355 30.04H69.8755L74.4155 19.32L74.4355 16.7H87.6755ZM85.3955 20.7C85.4755 20.5133 85.4621 20.36 85.3555 20.24C85.2621 20.1067 85.1021 20.04 84.8755 20.04H76.7755L78.5155 20.9L77.4755 23.34H83.4755C83.7021 23.34 83.9155 23.28 84.1155 23.16C84.3288 23.0267 84.4755 22.8667 84.5555 22.68L85.3955 20.7Z" fill="white"/>
<path d="M76 1.5V4.5L71.5 15H108C108 15 108.869 14.7543 109 14.5C109.131 14.2457 110 11.5 110 11.5H75.7656L78.2656 10.5L82 1.5H76Z" fill="#F0A500" stroke="#F0A500" stroke-width="0.3"/>
<path d="M93 30H90L96.5 15H101L95 28.5C95 28.5 94.6475 29.3391 94.5 29.5C94.1042 29.9318 93 30 93 30Z" fill="#F0A500" stroke="#F0A500" stroke-width="0.3"/>
</svg>
