<svg height="16" viewBox="0 0 15.957 15.957" width="16" xmlns="http://www.w3.org/2000/svg"><path d="M13.498 5.753c0-.809-.174-1.577-.486-2.269L7.964 7.053l-2.312 4.885.968 1.337q.144.2.23.432l.595 1.634a.578.578 0 0 0 1.088-.005l.575-1.621q.086-.24.234-.446l2.942-4.065a5.5 5.5 0 0 0 1.213-3.452" fill="#00c89e"/><path d="M7.969.234A5.51 5.51 0 0 0 3.8 2.157l2.437 2.084 2.06.306L9.532.456A5.5 5.5 0 0 0 7.969.234" fill="#00abf2"/><path d="M9.532.456 4.748 5.952l2.9 3.694 5.363-6.161A5.53 5.53 0 0 0 9.532.457" fill="#00c3ff"/><path d="m9.254 13.276-.968-1.337-1.593-2.201-1.041 2.201.968 1.337q.144.2.23.432l.595 1.634a.578.578 0 0 0 1.088-.005l.575-1.621a1.8 1.8 0 0 1 .189-.379z" fill="#00ab7e"/><path d="M3.8 2.158a5.5 5.5 0 0 0-1.34 3.614 5.5 5.5 0 0 0 .487 2.25l2.188-.866 1.101-2.911.002-.002z" fill="#ff4f80"/><path d="M5.094 5.772a5.5 5.5 0 0 1 .427-2.141L3.8 2.158a5.5 5.5 0 0 0-1.34 3.614 5.5 5.5 0 0 0 .487 2.25l2.188-.866.086-.227a5.5 5.5 0 0 1-.126-1.156" fill="#ff1146"/><path d="M9.722 7.263 6.235 4.245 5.189 5.446 2.946 8.021a5.5 5.5 0 0 0 .727 1.184l1.979 2.733zc-.075.086 0 0 0 0" fill="#ffdc5a"/><path d="M6.307 9.206a5.5 5.5 0 0 1-.727-1.184 5.5 5.5 0 0 1-.483-2.472L2.946 8.021a5.5 5.5 0 0 0 .727 1.184l1.979 2.733 1.439-1.653z" fill="#ffc027"/><path d="M6.235 4.244a2.306 2.306 0 1 1 3.487 3.017 2.306 2.306 0 0 1-3.487-3.016" fill="#fff"/><path d="M6.435 2.158A5.54 5.54 0 0 1 9.3.394a5.5 5.5 0 0 0-1.331-.16A5.51 5.51 0 0 0 3.8 2.157L5.522 3.63a5.5 5.5 0 0 1 .913-1.473" fill="#008cc9"/><path d="M13.225 3.388A5.75 5.75 0 0 0 7.979 0h-.01a5.75 5.75 0 0 0-4.346 2.004 5.74 5.74 0 0 0-.89 6.113 5.7 5.7 0 0 0 .751 1.226l2.946 4.07a1.5 1.5 0 0 1 .199.375l.595 1.634a.805.805 0 0 0 .763.535h.003a.805.805 0 0 0 .763-.541l.575-1.621a1.5 1.5 0 0 1 .203-.387l2.317-3.201a.234.234 0 0 0-.38-.275l-2.317 3.201a2 2 0 0 0-.265.505l-.575 1.621a.34.34 0 0 1-.323.229.34.34 0 0 1-.324-.226l-.595-1.634a2 2 0 0 0-.26-.489l-.859-1.186 1.207-1.387a.234.234 0 0 0-.023-.331.234.234 0 0 0-.331.023l-1.136 1.305-1.799-2.486-.013-.018a5.3 5.3 0 0 1-.632-.999L5.45 5.502a3 3 0 0 0-.013.252 2.544 2.544 0 0 0 3.138 2.47L7.467 9.497a.234.234 0 1 0 .354.308l5.117-5.878c.215.583.325 1.196.325 1.828a5.22 5.22 0 0 1-1.162 3.305l-.013.018-.026.035a.234.234 0 1 0 .38.275l.031-.043a5.77 5.77 0 0 0 1.258-3.59c0-.825-.171-1.62-.507-2.365M7.969.469A5.3 5.3 0 0 1 9.105.59l-.866.995a.234.234 0 1 0 .354.308L9.609.726a5.28 5.28 0 0 1 3.126 2.721l-2.228 2.559q.012-.125.013-.252a2.544 2.544 0 0 0-3.138-2.47l.556-.638a.234.234 0 0 0-.354-.308L6.213 3.913 4.136 2.136A5.28 5.28 0 0 1 7.97.469M2.694 5.771a5.27 5.27 0 0 1 1.135-3.28l2.076 1.776L3.02 7.581a5.2 5.2 0 0 1-.325-1.81m3.213-.017a2.07 2.07 0 0 1 .505-1.356 2.07 2.07 0 0 1 1.567-.716c1.142 0 2.072.93 2.072 2.072a2.07 2.07 0 0 1-.505 1.356 2.07 2.07 0 0 1-1.567.716 2.074 2.074 0 0 1-2.072-2.072"/></svg>