<svg width="18" height="30" viewBox="0 0 18 30" fill="none" xmlns="http://www.w3.org/2000/svg">
<path d="M6.78579 3.5156L6.77155 3.54635L6.77155 3.54636L2.44693 12.8875L2.41986 12.946C1.97447 13.908 1.60277 14.7107 1.41028 15.3645C1.21008 16.0445 1.1427 16.7598 1.55988 17.4127C1.97707 18.0656 2.65454 18.3049 3.35569 18.4089C4.02984 18.5089 4.91448 18.5089 5.97453 18.5089H6.03899H8.20837L8.20837 25.5228L8.20837 25.5736C8.20834 26.2355 8.20832 26.7987 8.25175 27.2025C8.27361 27.4058 8.31293 27.6443 8.40834 27.8578C8.5117 28.0891 8.73079 28.3895 9.14044 28.4797L9.31073 27.7066L9.14045 28.4797C9.5501 28.5699 9.87511 28.3894 10.0661 28.2229C10.2423 28.0693 10.3783 27.8693 10.4835 27.6941C10.6925 27.3459 10.9292 26.8347 11.2072 26.2341L11.2285 26.188L15.5531 16.8468L15.5802 16.7884C16.0256 15.8264 16.3973 15.0236 16.5898 14.3699C16.79 13.6899 16.8574 12.9745 16.4402 12.3217C16.023 11.6688 15.3455 11.4294 14.6444 11.3254C13.9702 11.2254 13.0856 11.2255 12.0255 11.2255L11.9611 11.2255L9.79171 11.2255V4.21156L9.79171 4.16078C9.79174 3.49893 9.79176 2.93567 9.74833 2.53186C9.72647 2.32859 9.68715 2.09004 9.59174 1.87656C9.48838 1.64528 9.26928 1.34489 8.85963 1.25467C8.44998 1.16444 8.12497 1.34498 7.934 1.51144C7.75773 1.66508 7.62183 1.86503 7.51659 2.04031C7.30754 2.3885 7.07093 2.89964 6.7929 3.50024L6.78579 3.5156Z" stroke="black" stroke-width="1.58333"/>
</svg>
